# xmcd
#
# Track frame offsets:
#	150
#	14142
#	28216
#	42149
#	55974
#	70944
#	86530
#	98506
#	111871
#	127555
#	146589
#	159224
#	171554
#	186004
#	201482
#
# Disc length: 2904 seconds
#
# Revision: 1
# Processed by: cddbd v1.5.2PL0 Copyright (c) Steve Scherf et al.
# Submitted via: audiograbber 1.83.01
#
DISCID=cc0b560f
DTITLE=SEPP mit Stixi and Sonja - Kuhl!
DYEAR=2006
DGENRE=Schlager
TTITLE0=How Do You Do, Ruft Meine Kuh
TTITLE1=Giggerig
TTITLE2=Einen Stern Der Deinen Namen Trägt
TTITLE3=Was Dich Im Leben Zwickt
TTITLE4=7000 Rinder
TTITLE5=Eviva Espana
TTITLE6=Liebe Das Lebe
TTITLE7=Immer Easy
TTITLE8=Schacher Sepp
TTITLE9=Alperose
TTITLE10=Ich Könnte Weinen Vor Glück
TTITLE11=Mer Sind Vo Der Führwehr
TTITLE12=Swiss Lady
TTITLE13=How Do You Do, Ruft Meine Kuh (Party Mix)
TTITLE14=Einen Stern Der Deinen Namen Trägt (Remix)
EXTD=
EXTT0=
EXTT1=
EXTT2=
EXTT3=
EXTT4=
EXTT5=
EXTT6=
EXTT7=
EXTT8=
EXTT9=
EXTT10=
EXTT11=
EXTT12=
EXTT13=
EXTT14=
PLAYORDER=
